<mxfile host="app.diagrams.net" modified="2023-10-16T14:36:29.105Z" agent="Mozilla/5.0 (X11; Linux x86_64) AppleWebKit/537.36 (KHTML, like Gecko) Chrome/117.0.0.0 Safari/537.36" etag="NDRlG3WWhHIulRcbJFTs" version="22.0.4" type="device">
  <diagram name="Pàgina-1" id="mhbHxmUa4zc_a_H4eHv1">
    <mxGraphModel dx="954" dy="618" grid="1" gridSize="10" guides="1" tooltips="1" connect="1" arrows="1" fold="1" page="1" pageScale="1" pageWidth="827" pageHeight="1169" math="0" shadow="0">
      <root>
        <mxCell id="0" />
        <mxCell id="1" parent="0" />
        <mxCell id="6d2bNqNMUXDxkiYPfy11-1" value="&lt;i&gt;Local - Entorn de desenvolupament&lt;/i&gt;" style="rounded=1;whiteSpace=wrap;html=1;verticalAlign=bottom;labelPosition=center;verticalLabelPosition=top;align=center;textDirection=ltr;labelBackgroundColor=none;spacingTop=0;spacing=2;fontSize=16;fillColor=#dae8fc;strokeColor=#6c8ebf;" parent="1" vertex="1">
          <mxGeometry x="160" y="240" width="440" height="260" as="geometry" />
        </mxCell>
        <mxCell id="4owsffbZFPDuhA250wdc-2" value="List" style="swimlane;fontStyle=0;childLayout=stackLayout;horizontal=1;startSize=30;horizontalStack=0;resizeParent=1;resizeParentMax=0;resizeLast=0;collapsible=1;marginBottom=0;whiteSpace=wrap;html=1;fillColor=#d5e8d4;strokeColor=#82b366;" parent="1" vertex="1">
          <mxGeometry x="320" y="350" width="120" height="80" as="geometry">
            <mxRectangle x="10" y="380.63" width="60" height="30" as="alternateBounds" />
          </mxGeometry>
        </mxCell>
        <mxCell id="4owsffbZFPDuhA250wdc-3" value="README.md" style="text;strokeColor=#82b366;fillColor=#d5e8d4;align=center;verticalAlign=middle;spacingLeft=4;spacingRight=4;overflow=hidden;points=[[0,0.5],[1,0.5]];portConstraint=eastwest;rotatable=0;whiteSpace=wrap;html=1;fontStyle=1;fontSize=14;fontColor=#009900;" parent="4owsffbZFPDuhA250wdc-2" vertex="1">
          <mxGeometry y="30" width="120" height="50" as="geometry" />
        </mxCell>
        <mxCell id="6d2bNqNMUXDxkiYPfy11-4" value="" style="sketch=0;aspect=fixed;pointerEvents=1;shadow=0;dashed=0;html=1;strokeColor=none;labelPosition=center;verticalLabelPosition=bottom;verticalAlign=top;align=center;fillColor=#00188D;shape=mxgraph.mscae.enterprise.internet" parent="1" vertex="1">
          <mxGeometry x="250" y="104.5" width="50" height="31" as="geometry" />
        </mxCell>
        <mxCell id="6d2bNqNMUXDxkiYPfy11-5" value="" style="sketch=0;aspect=fixed;pointerEvents=1;shadow=0;dashed=0;html=1;strokeColor=none;labelPosition=center;verticalLabelPosition=bottom;verticalAlign=top;align=center;fillColor=#00188D;shape=mxgraph.azure.computer" parent="1" vertex="1">
          <mxGeometry x="90" y="298.13" width="50" height="45" as="geometry" />
        </mxCell>
        <mxCell id="6d2bNqNMUXDxkiYPfy11-6" value="&lt;b style=&quot;font-size: 18px;&quot;&gt;Repositori Remot&lt;/b&gt;&lt;br style=&quot;font-size: 18px;&quot;&gt;&lt;i style=&quot;font-size: 18px;&quot;&gt;Remote Repository&lt;/i&gt;" style="rounded=1;whiteSpace=wrap;html=1;fontSize=18;fillColor=#d5e8d4;strokeColor=#82b366;" parent="1" vertex="1">
          <mxGeometry x="320" y="60" width="120" height="120" as="geometry" />
        </mxCell>
        <mxCell id="6d2bNqNMUXDxkiYPfy11-9" value="&lt;b&gt;Repositori local&lt;/b&gt;&lt;i&gt;&lt;br&gt;Local Repository&lt;/i&gt;" style="rounded=1;whiteSpace=wrap;html=1;fontSize=20;fillColor=#d5e8d4;strokeColor=#82b366;" parent="1" vertex="1">
          <mxGeometry x="460" y="260" width="120" height="120" as="geometry" />
        </mxCell>
        <mxCell id="6d2bNqNMUXDxkiYPfy11-10" value="&lt;b style=&quot;border-color: var(--border-color); font-size: 18px;&quot;&gt;Àrea de preparació&lt;/b&gt;&lt;br style=&quot;border-color: var(--border-color); font-size: 18px;&quot;&gt;&lt;i style=&quot;border-color: var(--border-color); font-size: 18px;&quot;&gt;Staging Area&lt;/i&gt;" style="rounded=1;whiteSpace=wrap;html=1;fontSize=20;fillColor=#d5e8d4;strokeColor=#82b366;" parent="1" vertex="1">
          <mxGeometry x="320" y="260.63" width="120" height="120" as="geometry" />
        </mxCell>
        <mxCell id="4owsffbZFPDuhA250wdc-4" value="git add &amp;lt;file&amp;gt;" style="edgeStyle=orthogonalEdgeStyle;rounded=0;orthogonalLoop=1;jettySize=auto;html=1;exitX=0.5;exitY=1;exitDx=0;exitDy=0;entryX=0.5;entryY=1;entryDx=0;entryDy=0;labelBackgroundColor=none;labelPosition=center;verticalLabelPosition=bottom;align=center;verticalAlign=top;fontSize=14;" parent="1" source="GCq1fiGLwXhdWzBK19Hx-4" target="4owsffbZFPDuhA250wdc-2" edge="1">
          <mxGeometry relative="1" as="geometry">
            <Array as="points">
              <mxPoint x="240" y="460" />
              <mxPoint x="380" y="460" />
            </Array>
          </mxGeometry>
        </mxCell>
        <mxCell id="GCq1fiGLwXhdWzBK19Hx-4" value="List" style="swimlane;fontStyle=0;childLayout=stackLayout;horizontal=1;startSize=30;horizontalStack=0;resizeParent=1;resizeParentMax=0;resizeLast=0;collapsible=1;marginBottom=0;whiteSpace=wrap;html=1;fillColor=#d5e8d4;strokeColor=#82b366;" parent="1" vertex="1">
          <mxGeometry x="180" y="350" width="120" height="80" as="geometry">
            <mxRectangle x="10" y="380.63" width="60" height="30" as="alternateBounds" />
          </mxGeometry>
        </mxCell>
        <mxCell id="GCq1fiGLwXhdWzBK19Hx-5" value="README.md" style="text;strokeColor=#82b366;fillColor=#d5e8d4;align=center;verticalAlign=middle;spacingLeft=4;spacingRight=4;overflow=hidden;points=[[0,0.5],[1,0.5]];portConstraint=eastwest;rotatable=0;whiteSpace=wrap;html=1;fontStyle=1;fontSize=14;" parent="GCq1fiGLwXhdWzBK19Hx-4" vertex="1">
          <mxGeometry y="30" width="120" height="50" as="geometry" />
        </mxCell>
        <mxCell id="6d2bNqNMUXDxkiYPfy11-11" value="&lt;b style=&quot;border-color: var(--border-color); font-size: 18px;&quot;&gt;Directori de treball&lt;/b&gt;&lt;br style=&quot;border-color: var(--border-color); font-size: 18px;&quot;&gt;&lt;i style=&quot;border-color: var(--border-color); font-size: 18px;&quot;&gt;Working directory&lt;/i&gt;" style="rounded=1;whiteSpace=wrap;html=1;fontSize=20;fillColor=#d5e8d4;strokeColor=#82b366;" parent="1" vertex="1">
          <mxGeometry x="180" y="260.63" width="120" height="119.37" as="geometry" />
        </mxCell>
      </root>
    </mxGraphModel>
  </diagram>
</mxfile>
